<?xml version="1.0" encoding="UTF-8" standalone="no"?>
<!-- Created with Inkscape (http://www.inkscape.org/) -->

<svg
   width="512"
   height="512"
   viewBox="0 0 512 512"
   version="1.1"
   id="svg5"
   inkscape:version="1.1.1 (3bf5ae0d25, 2021-09-20)"
   sodipodi:docname="bookgen-icon.svg"
   xmlns:inkscape="http://www.inkscape.org/namespaces/inkscape"
   xmlns:sodipodi="http://sodipodi.sourceforge.net/DTD/sodipodi-0.dtd"
   xmlns="http://www.w3.org/2000/svg"
   xmlns:svg="http://www.w3.org/2000/svg">
  <sodipodi:namedview
     id="namedview7"
     pagecolor="#ffffff"
     bordercolor="#666666"
     borderopacity="1.0"
     inkscape:pageshadow="2"
     inkscape:pageopacity="0.0"
     inkscape:pagecheckerboard="0"
     inkscape:document-units="px"
     showgrid="false"
     inkscape:snap-object-midpoints="false"
     inkscape:zoom="1.7050781"
     inkscape:cx="555.69301"
     inkscape:cy="241.9244"
     inkscape:window-width="3366"
     inkscape:window-height="1417"
     inkscape:window-x="66"
     inkscape:window-y="-8"
     inkscape:window-maximized="1"
     inkscape:current-layer="layer1" />
  <defs
     id="defs2" />
  <g
     inkscape:label="Réteg 1"
     inkscape:groupmode="layer"
     id="layer1">
    <g
       aria-label="B"
       id="text1749-6"
       style="font-size:661.75px;line-height:1.25;font-family:'Noto Serif Hebrew';-inkscape-font-specification:'Noto Serif Hebrew';fill:#17280b;stroke-width:1.93749"
       transform="matrix(1.0207169,0,0,1.0207169,7.9787362,8.1628224)">
      <path
         d="M 39.509521,30.623718 H 253.73816 q 78.51819,0 107.599,7.108643 42.97497,10.339844 67.85522,37.481933 25.20337,27.142086 25.20337,65.270266 0,27.46521 -13.24792,49.43738 -13.24793,21.64904 -38.4513,37.15881 -16.156,10.01672 -43.94433,17.12537 35.22009,6.4624 53.63794,15.50976 27.78833,13.57105 43.94433,38.77442 16.15601,25.20336 16.15601,56.86914 0,30.69641 -15.83289,56.86914 -15.83288,26.17273 -44.91369,42.97497 -28.75769,16.80225 -67.20899,21.64905 -38.45129,4.52368 -79.16443,4.52368 H 39.509521 v -27.14209 h 15.186646 q 21.972168,0 30.050171,-6.78552 11.632324,-9.37048 11.632324,-31.01953 v -313.1034 q 0,-21.972163 -3.554321,-30.050166 Q 89.27002,65.197571 82.161377,61.64325 75.052734,58.088928 54.696167,58.088928 H 39.509521 Z M 156.80212,66.490051 V 231.60443 h 82.39563 q 57.8385,0 79.16443,-5.49304 33.28137,-8.72424 50.72986,-29.72705 17.77161,-21.00281 17.77161,-53.96106 0,-27.78833 -16.15601,-46.206178 Q 354.87476,77.476135 328.05579,70.690613 310.6073,66.490051 255.67688,66.490051 Z m 0,196.133909 v 147.98902 q 0,22.29528 1.93872,26.49585 2.58497,5.81616 10.33985,8.078 5.49304,1.6156 31.01953,1.6156 h 43.94434 q 65.27026,0 93.05859,-7.10864 28.11145,-7.43177 47.82178,-30.69641 19.71032,-23.58777 19.71032,-56.54603 0,-27.78833 -16.156,-49.11425 -15.83289,-21.64905 -44.26746,-31.01953 -28.11145,-9.69361 -100.16723,-9.69361 z"
         style="font-family:'Bookman Old Style';-inkscape-font-specification:'Bookman Old Style';opacity:1;fill:#17280b;fill-opacity:1"
         id="path39205-5" />
    </g>
    <g
       aria-label="B"
       id="text1749"
       style="font-size:661.75px;line-height:1.25;font-family:'Noto Serif Hebrew';-inkscape-font-specification:'Noto Serif Hebrew';stroke-width:1.93749">
      <path
         d="M 39.509521,30.623718 H 253.73816 q 78.51819,0 107.599,7.108643 42.97497,10.339844 67.85522,37.481933 25.20337,27.142086 25.20337,65.270266 0,27.46521 -13.24792,49.43738 -13.24793,21.64904 -38.4513,37.15881 -16.156,10.01672 -43.94433,17.12537 35.22009,6.4624 53.63794,15.50976 27.78833,13.57105 43.94433,38.77442 16.15601,25.20336 16.15601,56.86914 0,30.69641 -15.83289,56.86914 -15.83288,26.17273 -44.91369,42.97497 -28.75769,16.80225 -67.20899,21.64905 -38.45129,4.52368 -79.16443,4.52368 H 39.509521 v -27.14209 h 15.186646 q 21.972168,0 30.050171,-6.78552 11.632324,-9.37048 11.632324,-31.01953 v -313.1034 q 0,-21.972163 -3.554321,-30.050166 Q 89.27002,65.197571 82.161377,61.64325 75.052734,58.088928 54.696167,58.088928 H 39.509521 Z M 156.80212,66.490051 V 231.60443 h 82.39563 q 57.8385,0 79.16443,-5.49304 33.28137,-8.72424 50.72986,-29.72705 17.77161,-21.00281 17.77161,-53.96106 0,-27.78833 -16.15601,-46.206178 Q 354.87476,77.476135 328.05579,70.690613 310.6073,66.490051 255.67688,66.490051 Z m 0,196.133909 v 147.98902 q 0,22.29528 1.93872,26.49585 2.58497,5.81616 10.33985,8.078 5.49304,1.6156 31.01953,1.6156 h 43.94434 q 65.27026,0 93.05859,-7.10864 28.11145,-7.43177 47.82178,-30.69641 19.71032,-23.58777 19.71032,-56.54603 0,-27.78833 -16.156,-49.11425 -15.83289,-21.64905 -44.26746,-31.01953 -28.11145,-9.69361 -100.16723,-9.69361 z"
         style="font-family:'Bookman Old Style';-inkscape-font-specification:'Bookman Old Style';fill:#6f8a91;fill-opacity:1;opacity:1"
         id="path39205" />
    </g>
    <text
       xml:space="preserve"
       style="font-style:normal;font-weight:normal;font-size:600.603px;line-height:1.25;font-family:sans-serif;fill:#000000;fill-opacity:1;stroke:none;stroke-width:1.50151"
       x="428.79535"
       y="465.66296"
       id="text25251"><tspan
         sodipodi:role="line"
         id="tspan25249"
         x="428.79535"
         y="465.66296"
         style="font-style:normal;font-variant:normal;font-weight:normal;font-stretch:normal;font-size:600.603px;font-family:'Bookman Old Style';-inkscape-font-specification:'Bookman Old Style';stroke-width:1.50151" /></text>
  </g>
</svg>
